<svg xmlns="http://www.w3.org/2000/svg" width="71.815" height="75.671" viewBox="0 0 71.815 75.671">
  <g id="Group_18" data-name="Group 18" transform="translate(-172 -1867)">
    <g id="Group_16" data-name="Group 16" transform="translate(243.815 1867) rotate(90)">
      <path id="Path_4" data-name="Path 4" d="M56.761,71.815l18.91-35.907L56.761,0H18.908L0,35.907,18.91,71.815ZM20.293,2.565H55.375L72.934,35.907,55.376,69.25H20.293L2.735,35.907Z" fill="#dbdbdb"/>
    </g>
    <g id="_x35__21_" transform="translate(191.028 1885.235)">
      <g id="Group_17" data-name="Group 17">
        <path id="Path_5" data-name="Path 5" d="M29.263,0H4.18C1.886,0,0,2.384,0,5.044V33.938c0,2.659,1.859,4.815,4.153,4.815H29.072a4.719,4.719,0,0,0,4.372-4.844V4.844C33.443,2.185,31.557,0,29.263,0Zm2.09,33.908a2.452,2.452,0,0,1-2.281,2.437H4.153a2.261,2.261,0,0,1-2.077-2.408V5.044a2.5,2.5,0,0,1,2.1-2.622H29.263a2.285,2.285,0,0,1,2.09,2.422V33.908ZM25.082,24.22H8.361a1.224,1.224,0,0,0,0,2.422H25.082a1.224,1.224,0,0,0,0-2.422Zm0-7.266H8.361a1.224,1.224,0,0,0,0,2.422H25.082a1.224,1.224,0,0,0,0-2.422Zm0-7.266H8.361A1.138,1.138,0,0,0,7.316,10.9,1.138,1.138,0,0,0,8.361,12.11H25.082A1.138,1.138,0,0,0,26.127,10.9,1.138,1.138,0,0,0,25.082,9.688Z" fill="#868686"/>
      </g>
    </g>
  </g>
</svg>
